#!OML:ASF H:\ManfredETheater\Project 1\Capture day 1\Session 1\subject.ASF
:FULLY-SPECIFIED
:DEGREES
92
root 6.94624 16.2704 3.02229 5.50295 -30.5712 16.9739
lowerback 14.0901 -2.67473 -9.62715
upperback -0.209918 -5.41637 -3.00378
thorax -7.56373 -2.32944 3.26318
lowerneck -18.3547 -3.54499 -5.51594
upperneck 7.44323 -4.06413 5.14049
head 5.42286 -1.77405 2.11232
rclavicle 6.07287e-014 1.41137e-014
rhumerus -74.2812 2.71417 -87.2702
rradius 90.1747
rwrist -18.9303
rhand -27.0456 13.5936
rfingers 7.12502
rthumb -0.46412 -16.3857
lclavicle 6.07287e-014 1.41137e-014
lhumerus -31.675 -10.4076 86.7239
lradius 129.305
lwrist 16.2043
lhand -17.5278 -10.7406
lfingers 7.12502
lthumb 8.726 19.0591
rfemur -65.338 -14.1061 35.1706
rtibia 65.1015
rfoot -14.9565 -3.05538
rtoes -34.0516
lfemur -1.63932 -7.24151 -17.0935
ltibia 34.2703
lfoot -4.17203 -11.1373
ltoes -36.1634
93
root 6.69939 16.3022 3.54353 5.13555 -31.5136 17.2808
lowerback 13.9227 -2.67098 -9.50642
upperback -0.281553 -5.38851 -3.11064
thorax -7.57225 -2.32202 3.06936
lowerneck -18.4599 -3.30575 -5.39331
upperneck 7.59884 -3.76138 5.0511
head 5.4683 -1.62724 2.09441
rclavicle 5.23798e-014 -1.70955e-014
rhumerus -75.7283 2.57071 -87.2607
rradius 90.7965
rwrist -18.7796
rhand -27.3267 13.4144
rfingers 7.12502
rthumb -0.73562 -16.5641
lclavicle 5.23798e-014 -1.70955e-014
lhumerus -31.2946 -10.4842 86.7785
lradius 130.289
lwrist 17.6329
lhand -17.3483 -10.5819
lfingers 7.12502
lthumb 8.8993 19.2105
rfemur -64.6429 -13.2315 35.2816
rtibia 59.3907
rfoot -13.7515 -2.24117
rtoes -33.1452
lfemur 0.472 -8.34092 -18.1552
ltibia 33.033
lfoot 1.26749 -11.297
ltoes -33.5162
94
root 6.44859 16.3263 4.0684 4.67045 -32.4252 17.6863
lowerback 13.7484 -2.6511 -9.40688
upperback -0.34862 -5.34675 -3.2685
thorax -7.57664 -2.30888 2.83004
lowerneck -18.5737 -3.09318 -5.27897
upperneck 7.82876 -3.49172 4.94343
head 5.5408 -1.4979 2.06863
rclavicle -6.70401e-014 2.24627e-014
rhumerus -76.9672 2.38391 -87.3656
rradius 91.3408
rwrist -18.8188
rhand -27.67 13.2157
rfingers 7.12502
rthumb -1.06715 -16.7614
lclavicle -6.70401e-014 2.24627e-014
lhumerus -31.2852 -10.8152 86.9872
lradius 131.049
lwrist 18.7385
lhand -17.1021 -10.4649
lfingers 7.12502
lthumb 9.13678 19.3171
rfemur -63.6687 -12.5222 35.2173
rtibia 53.9014
rfoot -12.2132 -1.31304
rtoes -31.9814
lfemur 2.36745 -9.45546 -19.3935
ltibia 32.161
lfoot 6.72079 -11.4712
ltoes -29.4484
95
root 6.19935 16.3303 4.59599 4.10432 -33.2494 18.2255
lowerback 13.5686 -2.62796 -9.36032
upperback -0.408362 -5.31216 -3.4682
thorax -7.56855 -2.29926 2.57619
lowerneck -18.7022 -2.90893 -5.16486
upperneck 8.10347 -3.2547 4.79294
head 5.63137 -1.38763 2.02597
rclavicle 2.70844e-014 7.15625e-015
rhumerus -77.9694 2.1612 -87.5456
rradius 91.8251
rwrist -19.0559
rhand -28.0547 13.0282
rfingers 7.12502
rthumb -1.43875 -16.9467
lclavicle 2.70844e-014 7.15625e-015
lhumerus -31.5984 -11.373 87.3586
lradius 131.497
lwrist 19.3476
lhand -16.8314 -10.3953
lfingers 7.12502
lthumb 9.39803 19.3751
rfemur -62.591 -11.9939 34.9614
rtibia 48.8722
rfoot -10.4466 -0.312429
rtoes -30.7773
lfemur 3.96941 -10.4438 -20.7732
ltibia 31.8269
lfoot 11.5521 -11.6679
ltoes -24.3358
96
root 5.94664 16.3289 5.12283 3.4491 -33.9216 18.8949
lowerback 13.345 -2.6215 -9.3723
upperback -0.423855 -5.30211 -3.6982
thorax -7.48269 -2.30523 2.32266
lowerneck -18.8614 -2.75189 -5.04971
upperneck 8.36604 -3.04703 4.60276
head 5.72444 -1.29479 1.96742
rclavicle -3.79679e-014 3.37934e-015
rhumerus -78.6602 1.90111 -87.7694
rradius 92.2509
rwrist -19.4125
rhand -28.4635 12.8651
rfingers 7.12502
rthumb -1.83353 -17.1068
lclavicle -3.79679e-014 3.37934e-015
lhumerus -32.1269 -12.1084 87.876
lradius 131.555
lwrist 19.3945
lhand -16.5891 -10.3823
lfingers 7.12502
lthumb 9.63181 19.3775
rfemur -61.4264 -11.6505 34.4894
rtibia 44.466
rfoot -8.61597 0.653778
rtoes -29.6863
lfemur 5.2076 -11.1504 -22.1802
ltibia 32.1363
lfoot 15.3169 -11.8254
ltoes -18.9465
97
root 5.69318 16.315 5.64809 2.70583 -34.399 19.6951
lowerback 13.1042 -2.6312 -9.46922
upperback -0.410491 -5.32183 -3.93522
thorax -7.34618 -2.32576 2.11169
lowerneck -18.9973 -2.63143 -4.97295
upperneck 8.57605 -2.87449 4.38677
head 5.79962 -1.22328 1.90335
rclavicle -1.12462e-013 -1.41137e-014
rhumerus -79.0699 1.60613 -87.9795
rradius 92.6342
rwrist -19.7735
rhand -28.8584 12.747
rfingers 7.12502
rthumb -2.21493 -17.2212
lclavicle -1.12462e-013 -1.41137e-014
lhumerus -32.8607 -12.9573 88.577
lradius 131.183
lwrist 18.9016
lhand -16.4009 -10.4314
lfingers 7.12502
lthumb 9.81337 19.32
rfemur -60.2883 -11.4619 33.7585
rtibia 40.9151
rfoot -6.82549 1.47431
rtoes -28.5665
lfemur 6.03227 -11.4684 -23.524
ltibia 33.1986
lfoot 17.7898 -11.8371
ltoes -14.111
98
root 5.43922 16.2886 6.17023 1.90017 -34.674 20.5824
lowerback 12.8384 -2.65337 -9.64588
upperback -0.360556 -5.36061 -4.15741
thorax -7.14578 -2.35623 1.96065
lowerneck -19.0824 -2.55081 -4.94941
upperneck 8.69221 -2.73931 4.15473
head 5.83952 -1.17429 1.83896
rclavicle -8.88567e-014 -2.92213e-014
rhumerus -79.1886 1.27406 -88.1417
rradius 92.9707
rwrist -20.0286
rhand -29.2123 12.67
rfingers 7.12502
rthumb -2.55674 -17.2944
lclavicle -8.88567e-014 -2.92213e-014
lhumerus -33.743 -13.8461 89.4555
lradius 130.363
lwrist 17.9887
lhand -16.2935 -10.5405
lfingers 7.12502
lthumb 9.91702 19.2059
rfemur -59.2259 -11.4042 32.81
rtibia 38.3582
rfoot -5.20301 2.11988
rtoes -26.7784
lfemur 6.44753 -11.3612 -24.7072
ltibia 34.9958
lfoot 19.0428 -11.6015
ltoes -10.4796
99
root 5.18559 16.2497 6.68816 1.06731 -34.7664 21.4803
lowerback 12.5555 -2.68205 -9.86441
upperback -0.266605 -5.40202 -4.34511
thorax -6.88054 -2.39 1.86686
lowerneck -19.1018 -2.50997 -4.98469
upperneck 8.69265 -2.64312 3.9248
head 5.83495 -1.14724 1.78079
rclavicle 1.41833e-013 -1.11319e-014
rhumerus -79.0039 0.91162 -88.2469
rradius 93.2518
rwrist -20.1169
rhand -29.4958 12.6192
rfingers 7.12502
rthumb -2.83053 -17.3418
lclavicle 1.41833e-013 -1.11319e-014
lhumerus -34.7259 -14.7003 90.4889
lradius 129.109
lwrist 16.8237
lhand -16.2827 -10.6825
lfingers 7.12502
lthumb 9.92745 19.0634
rfemur -58.2707 -11.4702 31.7618
rtibia 36.9102
rfoot -3.83265 2.69367
rtoes -23.5099
lfemur 6.46367 -10.8805 -25.6536
ltibia 37.5179
lfoot 19.2968 -11.0228
ltoes -8.17093
